<svg width="64" height="64" viewBox="0 0 64 64" fill="none" xmlns="http://www.w3.org/2000/svg">
  <!-- Background circle -->
  <circle cx="32" cy="32" r="30" fill="#007bff" stroke="#0056b3" stroke-width="2"/>
  
  <!-- Molecular structure design -->
  <!-- Central atom -->
  <circle cx="32" cy="32" r="3" fill="white"/>
  
  <!-- Bonds and atoms around center -->
  <!-- Top atom -->
  <line x1="32" y1="32" x2="32" y2="18" stroke="white" stroke-width="2"/>
  <circle cx="32" cy="18" r="2.5" fill="#ffc107"/>
  
  <!-- Top-right atom -->
  <line x1="32" y1="32" x2="44" y2="24" stroke="white" stroke-width="2"/>
  <circle cx="44" cy="24" r="2.5" fill="#28a745"/>
  
  <!-- Bottom-right atom -->
  <line x1="32" y1="32" x2="44" y2="40" stroke="white" stroke-width="2"/>
  <circle cx="44" cy="40" r="2.5" fill="#dc3545"/>
  
  <!-- Bottom atom -->
  <line x1="32" y1="32" x2="32" y2="46" stroke="white" stroke-width="2"/>
  <circle cx="32" cy="46" r="2.5" fill="#17a2b8"/>
  
  <!-- Bottom-left atom -->
  <line x1="32" y1="32" x2="20" y2="40" stroke="white" stroke-width="2"/>
  <circle cx="20" cy="40" r="2.5" fill="#6f42c1"/>
  
  <!-- Top-left atom -->
  <line x1="32" y1="32" x2="20" y2="24" stroke="white" stroke-width="2"/>
  <circle cx="20" cy="24" r="2.5" fill="#fd7e14"/>
  
  <!-- Additional bonds for complexity -->
  <line x1="20" y1="24" x2="32" y2="18" stroke="white" stroke-width="1.5" opacity="0.7"/>
  <line x1="44" y1="24" x2="32" y2="18" stroke="white" stroke-width="1.5" opacity="0.7"/>
  
  <!-- Letter 'D' overlay -->
  <text x="32" y="38" font-family="Arial, sans-serif" font-size="16" font-weight="bold" fill="white" text-anchor="middle">D</text>
</svg>